<svg xmlns="http://www.w3.org/2000/svg" data-name="Слой 2" width="532.1395355800216" height="100.18604744002914" style=""><rect id="backgroundrect" width="100%" height="100%" x="0" y="0" fill="none" stroke="none"/>
  <defs>
    <style>
      .cls-1 {
        fill: #3e5569;
      }
    </style>
  </defs>
  <title>LG_invoice</title>
  
  
<g class="currentLayer" style=""><title>Layer 1</title><g id="svg_1" class="">
    <path class="cls-1" d="M113.90093200683594,96.97883880615234 V1.148838806152341 h14 v95.83 z" id="svg_2"/>
    <path class="cls-1" d="M190.31093200683594,96.97883880615234 v-39 c0,-5.57 0,-22.4 -17.87,-22.4 c-11.27,0 -18.91,7.9 -18.91,22.27 v39.11 H140.06093200683594 V25.22883880615234 H152.62093200683594 v7.640000000000001 h0.26 c7.25,-9.58 18.13,-9.58 21,-9.58 c11.14,0 20.2,4.79 25.38,12.82 c2.85,4.66 4.4,10.36 4.53,18.39 v42.48 z" id="svg_3"/>
    <path class="cls-1" d="M245.98093200683593,96.97883880615234 h-9.45 L208.04093200683593,25.22883880615234 h14.37 l18.78,51.28 h0.26 l18.39,-51.28 h14.37 z" id="svg_4"/>
    <path class="cls-1" d="M313.57093200683596,98.78883880615234 c-24.09,0 -38.72,-20.07 -38.72,-38.2 c0,-19.55 16.45,-37.3 38.72,-37.3 c21.76,0 38.72,17.09 38.72,37.56 C352.3009320068359,78.34883880615234 337.9209320068359,98.78883880615234 313.57093200683596,98.78883880615234 zm0,-63.2 c-15.15,0 -25.25,12.56 -25.25,25.38 s10.23,25.51 25.25,25.51 c14.5,0 25.25,-12 25.25,-25.64 A25.26,25.26 0 0 0 313.57093200683596,35.58883880615234 z" id="svg_5"/>
    <path class="cls-1" d="M373.52093200683595,16.938838806152347 H360.0609320068359 V1.148838806152341 H373.52093200683595 zm0,80 H360.0609320068359 V25.22883880615234 H373.52093200683595 z" id="svg_6"/>
    <path class="cls-1" d="M438.40093200683594,49.05883880615234 c-2.2,-4.53 -7.38,-13.47 -20.2,-13.47 c-17.35,0 -23.57,14.5 -23.57,25.38 c0,12.43 7.9,25.51 23.31,25.51 c10.1,0 17,-5.83 20.33,-13.21 h15 c-5.44,15.93 -19.42,25.51 -35.35,25.51 c-23.57,0 -36.78,-19.29 -36.78,-37.81 c0,-19.42 14.24,-37.69 36.91,-37.69 c20.33,0 32.5,15.15 35.22,25.77 z" id="svg_7"/>
    <path class="cls-1" d="M469.9909320068359,66.92883880615234 c3.37,13.86 14.5,19.55 23.57,19.55 a22.94,22.94 0 0 0 20.46,-12 h13.47 a36.57,36.57 0 0 1 -34.45,24.35 c-20.33,0 -36.52,-17.48 -36.52,-37.81 c0,-21.5 16.58,-37.69 36.78,-37.69 a36.78,36.78 0 0 1 36.52,36.78 c0,2.33 -0.26,6 -0.39000000000000007,6.86 zm46.36,-10.36 c-0.6500000000000001,-10.49 -10.23,-21 -23.18,-21 s-22.53,10.49 -23.18,21 z" id="svg_8"/>
  </g><g id="svg_9" class="">
    <circle class="cls-1" cx="2.630931854248047" cy="3.0188369750976562" r="1.7899999618530273" id="svg_10"/>
    <circle class="cls-1" cx="21.060932159423828" cy="3.0188369750976562" r="1.7899999618530273" id="svg_11"/>
    <circle class="cls-1" cx="39.480934143066406" cy="3.0188369750976562" r="1.7899999618530273" id="svg_12"/>
    <circle class="cls-1" cx="57.90093231201172" cy="3.0188369750976562" r="1.7899999618530273" id="svg_13"/>
    <circle class="cls-1" cx="76.3309326171875" cy="3.0188369750976562" r="1.7899999618530273" id="svg_14"/>
    <circle class="cls-1" cx="94.75093078613281" cy="3.0188369750976562" r="1.7899999618530273" id="svg_15"/>
    <circle class="cls-1" cx="2.630931854248047" cy="21.448837280273438" r="1.7899999618530273" id="svg_16"/>
    <circle class="cls-1" cx="21.060932159423828" cy="21.448837280273438" r="1.7899999618530273" id="svg_17"/>
    <circle class="cls-1" cx="39.480934143066406" cy="21.448837280273438" r="1.7899999618530273" id="svg_18"/>
    <circle class="cls-1" cx="57.90093231201172" cy="21.448837280273438" r="1.7899999618530273" id="svg_19"/>
    <circle class="cls-1" cx="76.3309326171875" cy="21.448837280273438" r="1.7899999618530273" id="svg_20"/>
    <circle class="cls-1" cx="94.75093078613281" cy="21.448837280273438" r="1.7899999618530273" id="svg_21"/>
    <circle class="cls-1" cx="21.060932159423828" cy="39.88883972167969" r="1.7899999618530273" id="svg_22"/>
    <circle class="cls-1" cx="39.480934143066406" cy="39.88883972167969" r="1.7899999618530273" id="svg_23"/>
    <circle class="cls-1" cx="57.90093231201172" cy="39.88883972167969" r="1.7899999618530273" id="svg_24"/>
    <circle class="cls-1" cx="76.3309326171875" cy="39.88883972167969" r="1.7899999618530273" id="svg_25"/>
    <circle class="cls-1" cx="94.75093078613281" cy="39.88883972167969" r="1.7899999618530273" id="svg_26"/>
    <circle class="cls-1" cx="21.060932159423828" cy="58.308837890625" r="1.7899999618530273" id="svg_27"/>
    <circle class="cls-1" cx="39.480934143066406" cy="58.308837890625" r="1.7899999618530273" id="svg_28"/>
    <circle class="cls-1" cx="57.90093231201172" cy="58.308837890625" r="1.7899999618530273" id="svg_29"/>
    <circle class="cls-1" cx="76.3309326171875" cy="58.308837890625" r="1.7899999618530273" id="svg_30"/>
    <circle class="cls-1" cx="94.75093078613281" cy="58.308837890625" r="1.7899999618530273" id="svg_31"/>
    <circle class="cls-1" cx="21.060932159423828" cy="76.71883392333984" r="1.7899999618530273" id="svg_32"/>
    <circle class="cls-1" cx="39.480934143066406" cy="76.71883392333984" r="1.7899999618530273" id="svg_33"/>
    <circle class="cls-1" cx="57.90093231201172" cy="76.71883392333984" r="1.7899999618530273" id="svg_34"/>
    <circle class="cls-1" cx="76.3309326171875" cy="76.71883392333984" r="1.7899999618530273" id="svg_35"/>
    <circle class="cls-1" cx="94.75093078613281" cy="76.71883392333984" r="1.7899999618530273" id="svg_36"/>
    <circle class="cls-1" cx="21.060932159423828" cy="95.13883209228516" r="1.7899999618530273" id="svg_37"/>
    <circle class="cls-1" cx="39.480934143066406" cy="95.13883209228516" r="1.7899999618530273" id="svg_38"/>
    <circle class="cls-1" cx="57.90093231201172" cy="95.13883209228516" r="1.7899999618530273" id="svg_39"/>
    <circle class="cls-1" cx="76.3309326171875" cy="95.13883209228516" r="1.7899999618530273" id="svg_40"/>
    <circle class="cls-1" cx="94.75093078613281" cy="95.13883209228516" r="1.7899999618530273" id="svg_41"/>
    <circle class="cls-1" cx="2.630931854248047" cy="39.86883544921875" r="1.7899999618530273" id="svg_42"/>
    <circle class="cls-1" cx="2.630931854248047" cy="58.288841247558594" r="1.7899999618530273" id="svg_43"/>
    <circle class="cls-1" cx="2.630931854248047" cy="76.71883392333984" r="1.7899999618530273" id="svg_44"/>
    <circle class="cls-1" cx="2.630931854248047" cy="95.13883209228516" r="1.7899999618530273" id="svg_45"/>
  </g></g></svg>